<?xml version="1.0" encoding="utf-8"?>
<!-- Generator: Adobe Illustrator 16.0.0, SVG Export Plug-In . SVG Version: 6.00 Build 0)  -->
<!DOCTYPE svg PUBLIC "-//W3C//DTD SVG 1.1//EN" "http://www.w3.org/Graphics/SVG/1.1/DTD/svg11.dtd">
<svg version="1.1" id="Capa_1" xmlns="http://www.w3.org/2000/svg" xmlns:xlink="http://www.w3.org/1999/xlink" x="0px" y="0px"
	 width="137.103px" height="141.73px" viewBox="59.007 0 137.103 141.73" enable-background="new 59.007 0 137.103 141.73"
	 xml:space="preserve">
<g>
	<path fill="#FFFFFF" d="M177.074,90.325v32.376H78.041V90.325H59.007v41.893c0,5.254,4.255,9.514,9.531,9.514h118.04
		c5.271,0,9.531-4.255,9.531-9.514V90.325H177.074z"/>
	<path fill="#FFFFFF" d="M125.815,87.114L98.564,54.185c0,0-4.146-3.915,0.35-3.915s15.355,0,15.355,0s0-2.633,0-6.694
		c0-11.578,0-32.65,0-41.24c0,0-0.61-2.336,2.908-2.336c3.546,0,19.077,0,21.616,0c2.534,0,2.479,1.967,2.479,1.967
		c0,8.331,0,30.132,0,41.331c0,3.632,0,5.985,0,5.985s8.709,0,14.174,0c5.455,0,1.348,4.099,1.348,4.099
		s-23.186,30.778-26.42,34.008C128.047,89.729,125.815,87.114,125.815,87.114z"/>
</g>
</svg>
