<?xml version="1.0" encoding="utf-8"?>
<!-- Generator: Adobe Illustrator 16.0.0, SVG Export Plug-In . SVG Version: 6.00 Build 0)  -->
<!DOCTYPE svg PUBLIC "-//W3C//DTD SVG 1.1//EN" "http://www.w3.org/Graphics/SVG/1.1/DTD/svg11.dtd">
<svg version="1.1" id="Слой_1" xmlns="http://www.w3.org/2000/svg" xmlns:xlink="http://www.w3.org/1999/xlink" x="0px" y="0px"
	 width="100px" height="84px" viewBox="0 0 100 84" enable-background="new 0 0 100 84" xml:space="preserve">
<g>
	<defs>
		<path id="SVGID_1_" d="M98.463,22.523c-0.409-0.226-10-5.206-25.983-8.218l-0.614-2.623C70.267,4.816,64.222,0,57.151,0H42.787
			c-7.049,0-13.095,4.795-14.713,11.682l-0.615,2.623c-15.983,2.992-25.574,7.993-25.983,8.218C0.574,22.994,0,23.937,0,24.961
			v32.585c0,13.055,10.615,23.69,23.688,23.69c1.537,0,2.767-1.229,2.767-2.767s-1.229-2.767-2.767-2.767
			c-10,0-18.156-8.136-18.156-18.157V26.704c3.32-1.517,12.09-5.103,24.693-7.275c1.086-0.185,1.967-1.025,2.213-2.09l1.024-4.406
			c1.025-4.345,4.836-7.398,9.324-7.398h14.364c4.468,0,8.3,3.033,9.324,7.398l1.024,4.406c0.246,1.086,1.127,1.906,2.213,2.09
			c12.562,2.172,21.353,5.759,24.692,7.275v30.843c0,10.001-8.135,18.157-18.155,18.157c-1.537,0-2.767,1.229-2.767,2.767
			s1.229,2.767,2.767,2.767c13.054,0,23.688-10.615,23.688-23.69V24.961C99.938,23.937,99.385,22.994,98.463,22.523z"/>
	</defs>
	<use xlink:href="#SVGID_1_"  overflow="visible" fill-rule="evenodd" clip-rule="evenodd" fill="#FFFFFF"/>
	<clipPath id="SVGID_2_">
		<use xlink:href="#SVGID_1_"  overflow="visible"/>
	</clipPath>
	<g clip-path="url(#SVGID_2_)">
		<defs>
			<rect id="SVGID_3_" width="101" height="86"/>
		</defs>
		<use xlink:href="#SVGID_3_"  overflow="visible" fill="#FFFFFF"/>
		<clipPath id="SVGID_4_">
			<use xlink:href="#SVGID_3_"  overflow="visible"/>
		</clipPath>
		<rect x="-5" y="-5" clip-path="url(#SVGID_4_)" fill="#FFFFFF" width="109.938" height="91.237"/>
	</g>
</g>
<g>
	<defs>
		<path id="SVGID_5_" d="M8.781,17.149c0.287,0,0.574-0.041,0.861-0.144c2.91-0.963,5.963-1.824,9.078-2.562
			c1.496-0.348,2.397-1.844,2.049-3.32c-0.348-1.496-1.844-2.398-3.32-2.049c-3.258,0.779-6.475,1.681-9.549,2.685
			c-1.455,0.472-2.234,2.049-1.763,3.484C6.547,16.412,7.633,17.149,8.781,17.149z"/>
	</defs>
	<use xlink:href="#SVGID_5_"  overflow="visible" fill-rule="evenodd" clip-rule="evenodd" fill="#FFFFFF"/>
	<clipPath id="SVGID_6_">
		<use xlink:href="#SVGID_5_"  overflow="visible"/>
	</clipPath>
	<g clip-path="url(#SVGID_6_)">
		<defs>
			<rect id="SVGID_7_" width="101" height="86"/>
		</defs>
		<use xlink:href="#SVGID_7_"  overflow="visible" fill="#FFFFFF"/>
		<clipPath id="SVGID_8_">
			<use xlink:href="#SVGID_7_"  overflow="visible"/>
		</clipPath>
		<rect x="1" y="4" clip-path="url(#SVGID_8_)" fill="#FFFFFF" width="24.843" height="18.149"/>
	</g>
</g>
<g>
	<defs>
		<path id="SVGID_9_" d="M49.5,23L49.5,23c1.381,0,2.5,1.119,2.5,2.5v9c0,1.381-1.119,2.5-2.5,2.5S47,35.881,47,34.5v-9
			C47,24.119,48.119,23,49.5,23z"/>
	</defs>
	<use xlink:href="#SVGID_9_"  overflow="visible" fill="#FFFFFF"/>
	<clipPath id="SVGID_10_">
		<use xlink:href="#SVGID_9_"  overflow="visible"/>
	</clipPath>
	<g clip-path="url(#SVGID_10_)">
		<defs>
			<rect id="SVGID_11_" width="101" height="86"/>
		</defs>
		<use xlink:href="#SVGID_11_"  overflow="visible" fill="#FFFFFF"/>
		<clipPath id="SVGID_12_">
			<use xlink:href="#SVGID_11_"  overflow="visible"/>
		</clipPath>
		<rect x="42" y="18" clip-path="url(#SVGID_12_)" fill="#FFFFFF" width="15" height="24"/>
	</g>
</g>
<g>
	<defs>
		<path id="SVGID_13_" d="M28.266,28.057L28.266,28.057c1.251-0.583,2.739-0.042,3.322,1.209l3.804,8.157
			c0.583,1.251,0.042,2.739-1.209,3.322c-1.251,0.583-2.739,0.042-3.322-1.209l-3.804-8.157
			C26.473,30.127,27.015,28.64,28.266,28.057z"/>
	</defs>
	<use xlink:href="#SVGID_13_"  overflow="visible" fill="#FFFFFF"/>
	<clipPath id="SVGID_14_">
		<use xlink:href="#SVGID_13_"  overflow="visible"/>
	</clipPath>
	<g clip-path="url(#SVGID_14_)">
		<defs>
			<rect id="SVGID_15_" width="101" height="86"/>
		</defs>
		<use xlink:href="#SVGID_15_"  overflow="visible" fill="#FFFFFF"/>
		<clipPath id="SVGID_16_">
			<use xlink:href="#SVGID_15_"  overflow="visible"/>
		</clipPath>
		
			<rect x="23.724" y="22.401" transform="matrix(-0.9063 0.4226 -0.4226 -0.9063 74.0613 52.3827)" clip-path="url(#SVGID_16_)" fill="#FFFFFF" width="15" height="24"/>
	</g>
</g>
<g>
	<defs>
		<path id="SVGID_17_" d="M70.183,28.057L70.183,28.057c1.251,0.583,1.793,2.071,1.209,3.322l-3.804,8.157
			c-0.583,1.251-2.07,1.792-3.322,1.209c-1.251-0.583-1.793-2.071-1.209-3.322l3.804-8.157
			C67.443,28.015,68.931,27.473,70.183,28.057z"/>
	</defs>
	<use xlink:href="#SVGID_17_"  overflow="visible" fill="#FFFFFF"/>
	<clipPath id="SVGID_18_">
		<use xlink:href="#SVGID_17_"  overflow="visible"/>
	</clipPath>
	<g clip-path="url(#SVGID_18_)">
		<defs>
			<rect id="SVGID_19_" width="101" height="86"/>
		</defs>
		<use xlink:href="#SVGID_19_"  overflow="visible" fill="#FFFFFF"/>
		<clipPath id="SVGID_20_">
			<use xlink:href="#SVGID_19_"  overflow="visible"/>
		</clipPath>
		
			<rect x="59.724" y="22.401" transform="matrix(-0.9063 -0.4226 0.4226 -0.9063 113.6113 93.9889)" clip-path="url(#SVGID_20_)" fill="#FFFFFF" width="15" height="24"/>
	</g>
</g>
<g>
	<defs>
		<path id="SVGID_21_" d="M49.5,79C39.851,79,32,71.152,32,61.507S39.851,44,49.5,44S67,51.848,67,61.493S59.149,79,49.5,79z
			 M49.5,39C37.092,39,27,49.089,27,61.493S37.092,84,49.5,84S72,73.911,72,61.507S61.908,39,49.5,39z"/>
	</defs>
	<use xlink:href="#SVGID_21_"  overflow="visible" fill="#FFFFFF"/>
	<clipPath id="SVGID_22_">
		<use xlink:href="#SVGID_21_"  overflow="visible"/>
	</clipPath>
	<g clip-path="url(#SVGID_22_)">
		<defs>
			<rect id="SVGID_23_" width="101" height="86"/>
		</defs>
		<use xlink:href="#SVGID_23_"  overflow="visible" fill="#FFFFFF"/>
		<clipPath id="SVGID_24_">
			<use xlink:href="#SVGID_23_"  overflow="visible"/>
		</clipPath>
		<rect x="22" y="34" clip-path="url(#SVGID_24_)" fill="#FFFFFF" width="55" height="55"/>
	</g>
</g>
<g>
	<defs>
		<circle id="SVGID_25_" cx="49.857" cy="61.857" r="6.857"/>
	</defs>
	<use xlink:href="#SVGID_25_"  overflow="visible" fill="#FFFFFF"/>
	<clipPath id="SVGID_26_">
		<use xlink:href="#SVGID_25_"  overflow="visible"/>
	</clipPath>
	<g clip-path="url(#SVGID_26_)">
		<defs>
			<rect id="SVGID_27_" width="101" height="86"/>
		</defs>
		<use xlink:href="#SVGID_27_"  overflow="visible" fill="#FFFFFF"/>
		<clipPath id="SVGID_28_">
			<use xlink:href="#SVGID_27_"  overflow="visible"/>
		</clipPath>
		<rect x="38" y="50" clip-path="url(#SVGID_28_)" fill="#FFFFFF" width="23.714" height="23.714"/>
	</g>
</g>
</svg>
