<?xml version="1.0" encoding="utf-8"?>
<!-- Generator: Adobe Illustrator 16.0.0, SVG Export Plug-In . SVG Version: 6.00 Build 0)  -->
<!DOCTYPE svg PUBLIC "-//W3C//DTD SVG 1.1//EN" "http://www.w3.org/Graphics/SVG/1.1/DTD/svg11.dtd">
<svg version="1.1" id="Layer_1" xmlns="http://www.w3.org/2000/svg" xmlns:xlink="http://www.w3.org/1999/xlink" x="0px" y="0px"
	 width="102.658px" height="141.73px" viewBox="76.231 0 102.658 141.73" enable-background="new 76.231 0 102.658 141.73"
	 xml:space="preserve">
<g>
	<g>
		<path fill="#32BF9C" d="M127.56,0C99.257,0,76.231,23.026,76.231,51.329c0,35.125,45.935,86.689,47.89,88.868
			c1.837,2.046,5.044,2.042,6.878,0c1.955-2.179,47.89-53.743,47.89-88.868C178.888,23.026,155.863,0,127.56,0z M127.56,77.154
			c-14.24,0-25.825-11.585-25.825-25.825s11.585-25.824,25.825-25.824c14.24,0,25.824,11.585,25.824,25.824
			C153.384,65.569,141.8,77.154,127.56,77.154z"/>
	</g>
</g>
</svg>
