<?xml version="1.0" encoding="utf-8"?>
<!-- Generator: Adobe Illustrator 16.0.0, SVG Export Plug-In . SVG Version: 6.00 Build 0)  -->
<!DOCTYPE svg PUBLIC "-//W3C//DTD SVG 1.1//EN" "http://www.w3.org/Graphics/SVG/1.1/DTD/svg11.dtd">
<svg version="1.1" id="Capa_1" xmlns="http://www.w3.org/2000/svg" xmlns:xlink="http://www.w3.org/1999/xlink" x="0px" y="0px"
	 width="141.73px" height="141.73px" viewBox="56.695 0 141.73 141.73" enable-background="new 56.695 0 141.73 141.73"
	 xml:space="preserve">
<g>
	<g>
		<path fill="#FFFFFF" d="M185.138,35.432h-4.43v-4.429c0-7.339-5.948-13.287-13.287-13.287h-4.429v-4.43
			C162.993,5.949,157.044,0,149.706,0H69.982c-7.338,0-13.288,5.949-13.288,13.287V93.01c0,7.338,5.949,13.287,13.288,13.287h4.429
			v4.429c0,7.339,5.949,13.287,13.288,13.287h4.429v4.43c0,7.338,5.949,13.287,13.287,13.287h79.724
			c7.338,0,13.287-5.949,13.287-13.287V48.719C198.425,41.382,192.476,35.432,185.138,35.432z M65.553,73.478V13.287
			c0-2.446,1.983-4.429,4.429-4.429h79.723c2.446,0,4.429,1.982,4.429,4.429v42.475l-10.143-10.143
			c-1.728-1.717-4.518-1.717-6.244,0L118.702,64.62L99.701,45.575c-1.728-1.717-4.517-1.717-6.245,0L65.553,73.478z M87.699,115.156
			c-2.446,0-4.429-1.983-4.429-4.43v-4.429h66.436c7.339,0,13.287-5.949,13.287-13.287V26.574h4.429c2.446,0,4.43,1.983,4.43,4.43
			v79.723c0,2.446-1.983,4.43-4.43,4.43H87.699z M189.567,128.443c0,2.446-1.983,4.429-4.429,4.429h-79.724
			c-2.446,0-4.429-1.982-4.429-4.429v-4.43h66.436c7.339,0,13.287-5.948,13.287-13.287V44.291h4.43c2.445,0,4.429,1.982,4.429,4.429
			V128.443z"/>
	</g>
</g>
</svg>
