<?xml version="1.0" encoding="utf-8"?>
<!-- Generator: Adobe Illustrator 16.0.0, SVG Export Plug-In . SVG Version: 6.00 Build 0)  -->
<!DOCTYPE svg PUBLIC "-//W3C//DTD SVG 1.1//EN" "http://www.w3.org/Graphics/SVG/1.1/DTD/svg11.dtd">
<svg version="1.1" id="Capa_1" xmlns="http://www.w3.org/2000/svg" xmlns:xlink="http://www.w3.org/1999/xlink" x="0px" y="0px"
	 width="97.16px" height="97.16px" viewBox="0 0 97.16 97.16" enable-background="new 0 0 97.16 97.16" xml:space="preserve">
<g>
	<g>
		<linearGradient id="SVGID_1_" gradientUnits="userSpaceOnUse" x1="14.2451" y1="82.916" x2="82.9156" y2="14.2455">
			<stop  offset="0" style="stop-color:#32BF9C"/>
			<stop  offset="1" style="stop-color:#69DA94"/>
		</linearGradient>
		<path fill="url(#SVGID_1_)" d="M48.58,0C21.793,0,0,21.793,0,48.58s21.793,48.58,48.58,48.58s48.58-21.793,48.58-48.58
			S75.367,0,48.58,0z M48.58,86.822c-21.087,0-38.244-17.154-38.244-38.242S27.493,10.337,48.58,10.337S86.824,27.492,86.824,48.58
			S69.667,86.822,48.58,86.822z"/>
		<linearGradient id="SVGID_2_" gradientUnits="userSpaceOnUse" x1="44.1333" y1="52.8037" x2="64.9152" y2="32.0218">
			<stop  offset="0" style="stop-color:#32BF9C"/>
			<stop  offset="1" style="stop-color:#69DA94"/>
		</linearGradient>
		<path fill="url(#SVGID_2_)" d="M73.898,47.08H52.066V20.83c0-2.209-1.791-4-4-4c-2.209,0-4,1.791-4,4v30.25c0,2.209,1.791,4,4,4
			h25.833c2.209,0,4-1.791,4-4S76.107,47.08,73.898,47.08z"/>
	</g>
</g>
</svg>
